<svg width="363" height="86" viewBox="0 0 363 86" fill="none" xmlns="http://www.w3.org/2000/svg">
<path fill-rule="evenodd" clip-rule="evenodd" d="M363 0.178956V86H322.224C322.153 85.8313 322.081 85.6624 322.009 85.4931C316.35 72.4326 311.331 57.5067 315.098 45.457C318.48 34.6363 329.122 26.0913 339.915 17.4248C341.141 16.4405 342.368 15.4547 343.588 14.4639C344.465 13.751 345.339 13.0352 346.21 12.322C351.944 7.62663 357.539 3.04583 363 0.178956Z" fill="#FF0066"/>
<rect x="6" y="23" width="338" height="46" rx="6" fill="#FAFAFA"/>
<rect x="15" y="32" width="28" height="28" rx="6" fill="url(#paint0_linear_103_459)"/>
<path d="M218.138 51.9091V57H217.673V51.9091H218.138ZM219.4 57V53.1818H219.83V53.7685H219.869C219.946 53.5713 220.072 53.4163 220.25 53.3036C220.429 53.1893 220.643 53.1321 220.894 53.1321C221.157 53.1321 221.373 53.1942 221.542 53.3185C221.713 53.4412 221.841 53.6102 221.925 53.8256H221.957C222.044 53.6135 222.184 53.4453 222.378 53.321C222.573 53.1951 222.81 53.1321 223.089 53.1321C223.443 53.1321 223.723 53.244 223.929 53.4677C224.134 53.6897 224.237 54.0146 224.237 54.4421V57H223.794V54.4421C223.794 54.1405 223.717 53.9143 223.563 53.7635C223.409 53.6127 223.206 53.5373 222.954 53.5373C222.663 53.5373 222.438 53.6268 222.281 53.8058C222.123 53.9847 222.044 54.2118 222.044 54.4869V57H221.592V54.4023C221.592 54.1438 221.52 53.935 221.376 53.7759C221.232 53.6168 221.029 53.5373 220.767 53.5373C220.591 53.5373 220.433 53.5804 220.292 53.6665C220.153 53.7527 220.043 53.8729 219.961 54.027C219.882 54.1795 219.842 54.3551 219.842 54.554V57H219.4ZM225.408 58.4318V53.1818H225.838V53.9102H225.891C225.944 53.7958 226.017 53.679 226.109 53.5597C226.202 53.4387 226.325 53.3368 226.477 53.2539C226.631 53.171 226.825 53.1296 227.059 53.1296C227.374 53.1296 227.649 53.2125 227.884 53.3782C228.121 53.5423 228.305 53.7726 228.436 54.0692C228.569 54.3642 228.635 54.7081 228.635 55.1009C228.635 55.4953 228.569 55.8408 228.436 56.1374C228.305 56.4341 228.121 56.6652 227.884 56.831C227.649 56.9967 227.375 57.0795 227.064 57.0795C226.834 57.0795 226.641 57.0381 226.485 56.9553C226.331 56.8724 226.205 56.7705 226.109 56.6495C226.015 56.5269 225.942 56.4076 225.891 56.2915H225.851V58.4318H225.408ZM225.846 55.0934C225.846 55.4016 225.891 55.6751 225.983 55.9137C226.075 56.1507 226.208 56.3371 226.38 56.473C226.554 56.6072 226.765 56.6744 227.012 56.6744C227.265 56.6744 227.479 56.6048 227.653 56.4656C227.829 56.3247 227.962 56.1349 228.053 55.8963C228.146 55.6577 228.192 55.39 228.192 55.0934C228.192 54.8001 228.147 54.5357 228.056 54.3004C227.966 54.0651 227.834 53.8787 227.658 53.7411C227.482 53.6019 227.267 53.5323 227.012 53.5323C226.763 53.5323 226.552 53.5994 226.378 53.7337C226.204 53.8662 226.071 54.0502 225.98 54.2855C225.891 54.5192 225.846 54.7885 225.846 55.0934ZM229.606 57V53.1818H230.036V53.7685H230.068C230.144 53.5762 230.277 53.4213 230.466 53.3036C230.656 53.1843 230.872 53.1246 231.112 53.1246C231.148 53.1246 231.189 53.1255 231.234 53.1271C231.279 53.1288 231.316 53.1304 231.346 53.1321V53.582C231.326 53.5787 231.291 53.5737 231.241 53.5671C231.192 53.5605 231.138 53.5572 231.08 53.5572C230.881 53.5572 230.704 53.5994 230.548 53.6839C230.394 53.7668 230.272 53.882 230.182 54.0295C230.093 54.177 230.048 54.3452 230.048 54.5341V57H229.606ZM233.528 57.0795C233.172 57.0795 232.864 56.9967 232.604 56.831C232.343 56.6636 232.142 56.4324 231.999 56.1374C231.859 55.8408 231.788 55.4994 231.788 55.1133C231.788 54.7288 231.859 54.3874 231.999 54.0891C232.142 53.7892 232.338 53.5547 232.589 53.3857C232.84 53.215 233.131 53.1296 233.461 53.1296C233.668 53.1296 233.868 53.1677 234.06 53.244C234.252 53.3185 234.425 53.4337 234.577 53.5895C234.731 53.7436 234.853 53.9383 234.943 54.1737C235.032 54.4073 235.077 54.6841 235.077 55.0039V55.2227H232.094V54.8324H234.624C234.624 54.5871 234.575 54.3667 234.475 54.1712C234.378 53.974 234.241 53.8182 234.065 53.7038C233.891 53.5895 233.69 53.5323 233.461 53.5323C233.219 53.5323 233.006 53.5969 232.822 53.7262C232.638 53.8555 232.494 54.0262 232.39 54.2383C232.287 54.4504 232.235 54.6824 232.233 54.9343V55.168C232.233 55.4712 232.285 55.7364 232.39 55.9634C232.496 56.1888 232.646 56.3636 232.84 56.4879C233.034 56.6122 233.263 56.6744 233.528 56.6744C233.709 56.6744 233.867 56.6462 234.003 56.5898C234.141 56.5335 234.256 56.4581 234.349 56.3636C234.443 56.2675 234.514 56.1623 234.562 56.0479L234.982 56.1847C234.924 56.3454 234.829 56.4937 234.697 56.6296C234.566 56.7655 234.402 56.8749 234.204 56.9577C234.009 57.0389 233.783 57.0795 233.528 57.0795ZM238.617 54.0195L238.212 54.1339C238.172 54.0195 238.116 53.916 238.043 53.8232C237.97 53.7304 237.875 53.6566 237.757 53.6019C237.641 53.5472 237.497 53.5199 237.325 53.5199C237.066 53.5199 236.854 53.5812 236.688 53.7038C236.523 53.8265 236.44 53.9847 236.44 54.1786C236.44 54.3427 236.496 54.4761 236.609 54.5788C236.723 54.6799 236.899 54.7603 237.136 54.82L237.712 54.9616C238.032 55.0395 238.272 55.163 238.431 55.332C238.592 55.5011 238.672 55.7132 238.672 55.9684C238.672 56.1838 238.612 56.3752 238.493 56.5426C238.374 56.71 238.207 56.8417 237.993 56.9379C237.781 57.0323 237.535 57.0795 237.255 57.0795C236.882 57.0795 236.575 56.9959 236.333 56.8285C236.091 56.6594 235.936 56.4158 235.868 56.0977L236.293 55.9933C236.348 56.2203 236.455 56.3918 236.614 56.5078C236.774 56.6238 236.986 56.6818 237.248 56.6818C237.541 56.6818 237.775 56.6164 237.951 56.4854C238.127 56.3529 238.215 56.1871 238.215 55.9883C238.215 55.8342 238.163 55.7049 238.06 55.6005C237.958 55.4944 237.802 55.4165 237.593 55.3668L236.969 55.2177C236.638 55.1381 236.392 55.0122 236.233 54.8398C236.074 54.6675 235.995 54.4537 235.995 54.1985C235.995 53.988 236.052 53.8033 236.166 53.6442C236.281 53.4834 236.438 53.3575 236.639 53.2663C236.839 53.1752 237.068 53.1296 237.325 53.1296C237.674 53.1296 237.954 53.2092 238.162 53.3683C238.373 53.5257 238.524 53.7428 238.617 54.0195ZM242.206 54.0195L241.801 54.1339C241.761 54.0195 241.705 53.916 241.632 53.8232C241.559 53.7304 241.464 53.6566 241.346 53.6019C241.23 53.5472 241.086 53.5199 240.914 53.5199C240.655 53.5199 240.443 53.5812 240.277 53.7038C240.111 53.8265 240.029 53.9847 240.029 54.1786C240.029 54.3427 240.085 54.4761 240.198 54.5788C240.312 54.6799 240.488 54.7603 240.725 54.82L241.301 54.9616C241.621 55.0395 241.861 55.163 242.02 55.332C242.18 55.5011 242.261 55.7132 242.261 55.9684C242.261 56.1838 242.201 56.3752 242.082 56.5426C241.963 56.71 241.796 56.8417 241.582 56.9379C241.37 57.0323 241.124 57.0795 240.844 57.0795C240.471 57.0795 240.164 56.9959 239.922 56.8285C239.68 56.6594 239.525 56.4158 239.457 56.0977L239.882 55.9933C239.937 56.2203 240.044 56.3918 240.203 56.5078C240.363 56.6238 240.575 56.6818 240.836 56.6818C241.13 56.6818 241.364 56.6164 241.54 56.4854C241.716 56.3529 241.803 56.1871 241.803 55.9883C241.803 55.8342 241.752 55.7049 241.649 55.6005C241.547 55.4944 241.391 55.4165 241.182 55.3668L240.558 55.2177C240.227 55.1381 239.981 55.0122 239.822 54.8398C239.663 54.6675 239.584 54.4537 239.584 54.1985C239.584 53.988 239.641 53.8033 239.755 53.6442C239.869 53.4834 240.027 53.3575 240.227 53.2663C240.428 53.1752 240.657 53.1296 240.914 53.1296C241.263 53.1296 241.542 53.2092 241.751 53.3683C241.962 53.5257 242.113 53.7428 242.206 54.0195ZM245.656 55.5408V53.1818H246.098V57H245.656V56.3661H245.621C245.532 56.5617 245.39 56.7249 245.196 56.8558C245.002 56.9851 244.765 57.0497 244.485 57.0497C244.241 57.0497 244.025 56.9967 243.836 56.8906C243.647 56.7829 243.499 56.6255 243.391 56.4183C243.284 56.2112 243.23 55.9568 243.23 55.6552V53.1818H243.672V55.6278C243.672 55.9261 243.76 56.1664 243.936 56.3487C244.111 56.5294 244.337 56.6197 244.612 56.6197C244.784 56.6197 244.95 56.5782 245.109 56.4954C245.268 56.4125 245.399 56.2915 245.502 56.1325C245.604 55.9717 245.656 55.7745 245.656 55.5408ZM247.27 57V53.1818H247.7V53.7685H247.74C247.816 53.5713 247.943 53.4163 248.12 53.3036C248.299 53.1893 248.513 53.1321 248.764 53.1321C249.027 53.1321 249.243 53.1942 249.412 53.3185C249.583 53.4412 249.711 53.6102 249.795 53.8256H249.828C249.914 53.6135 250.054 53.4453 250.248 53.321C250.443 53.1951 250.68 53.1321 250.959 53.1321C251.313 53.1321 251.593 53.244 251.799 53.4677C252.004 53.6897 252.107 54.0146 252.107 54.4421V57H251.665V54.4421C251.665 54.1405 251.588 53.9143 251.433 53.7635C251.279 53.6127 251.076 53.5373 250.824 53.5373C250.533 53.5373 250.308 53.6268 250.151 53.8058C249.993 53.9847 249.915 54.2118 249.915 54.4869V57H249.462V54.4023C249.462 54.1438 249.39 53.935 249.246 53.7759C249.102 53.6168 248.899 53.5373 248.637 53.5373C248.461 53.5373 248.303 53.5804 248.162 53.6665C248.023 53.7527 247.913 53.8729 247.831 54.027C247.752 54.1795 247.712 54.3551 247.712 54.554V57H247.27ZM256.831 57H255.339V51.9091H256.92C257.406 51.9091 257.821 52.0102 258.166 52.2124C258.512 52.4145 258.777 52.7045 258.961 53.0824C259.145 53.4602 259.237 53.9135 259.237 54.4421C259.237 54.9757 259.142 55.4339 258.954 55.8168C258.766 56.1979 258.493 56.4904 258.133 56.6942C257.775 56.8981 257.341 57 256.831 57ZM255.804 56.5824H256.803C257.241 56.5824 257.607 56.4962 257.902 56.3239C258.197 56.1515 258.418 55.9054 258.566 55.5856C258.713 55.2657 258.787 54.8846 258.787 54.4421C258.785 54.003 258.712 53.6251 258.568 53.3086C258.426 52.9921 258.214 52.7493 257.932 52.5803C257.652 52.4112 257.305 52.3267 256.893 52.3267H255.804V56.5824ZM261.338 57.087C261.108 57.087 260.897 57.0423 260.707 56.9528C260.516 56.8616 260.364 56.7307 260.252 56.56C260.139 56.3877 260.083 56.1789 260.083 55.9336C260.083 55.7447 260.118 55.5856 260.19 55.4563C260.261 55.3271 260.362 55.221 260.493 55.1381C260.624 55.0553 260.779 54.9898 260.958 54.9418C261.137 54.8937 261.334 54.8564 261.549 54.8299C261.763 54.8034 261.944 54.7802 262.091 54.7603C262.24 54.7404 262.354 54.7089 262.432 54.6658C262.51 54.6228 262.549 54.5531 262.549 54.457V54.3675C262.549 54.1074 262.471 53.9027 262.315 53.7536C262.161 53.6027 261.939 53.5273 261.649 53.5273C261.374 53.5273 261.149 53.5878 260.975 53.7088C260.803 53.8298 260.682 53.9723 260.612 54.1364L260.192 53.9847C260.278 53.7759 260.398 53.6094 260.55 53.4851C260.703 53.3591 260.873 53.2688 261.062 53.2141C261.251 53.1578 261.442 53.1296 261.636 53.1296C261.782 53.1296 261.934 53.1487 262.091 53.1868C262.25 53.2249 262.398 53.2912 262.534 53.3857C262.67 53.4785 262.78 53.6085 262.864 53.7759C262.949 53.9416 262.991 54.1521 262.991 54.4073V57H262.549V56.396H262.521C262.468 56.5086 262.39 56.618 262.285 56.7241C262.181 56.8301 262.05 56.9171 261.892 56.9851C261.735 57.053 261.55 57.087 261.338 57.087ZM261.398 56.6818C261.633 56.6818 261.837 56.6296 262.009 56.5252C262.182 56.4208 262.314 56.2824 262.407 56.1101C262.501 55.9361 262.549 55.7447 262.549 55.5359V54.984C262.516 55.0155 262.46 55.0437 262.382 55.0685C262.306 55.0934 262.217 55.1158 262.116 55.1357C262.017 55.1539 261.917 55.1696 261.818 55.1829C261.718 55.1961 261.629 55.2077 261.549 55.2177C261.334 55.2442 261.15 55.2856 260.998 55.342C260.845 55.3983 260.728 55.4762 260.647 55.5756C260.566 55.6734 260.525 55.7994 260.525 55.9535C260.525 56.1855 260.608 56.3653 260.774 56.4929C260.94 56.6188 261.147 56.6818 261.398 56.6818ZM265.672 53.1818V53.5671H263.85V53.1818H265.672ZM264.419 52.267H264.864V56.0032C264.864 56.1623 264.892 56.2874 264.946 56.3786C265.001 56.468 265.072 56.5318 265.16 56.57C265.248 56.6064 265.341 56.6246 265.441 56.6246C265.499 56.6246 265.549 56.6213 265.59 56.6147C265.631 56.6064 265.668 56.5981 265.699 56.5898L265.794 56.9901C265.751 57.0066 265.698 57.0215 265.635 57.0348C265.572 57.0497 265.494 57.0572 265.401 57.0572C265.239 57.0572 265.082 57.0215 264.931 56.9503C264.782 56.879 264.66 56.773 264.563 56.6321C264.467 56.4912 264.419 56.3164 264.419 56.1076V52.267ZM268.18 57.0795C267.823 57.0795 267.515 56.9967 267.255 56.831C266.995 56.6636 266.793 56.4324 266.651 56.1374C266.51 55.8408 266.44 55.4994 266.44 55.1133C266.44 54.7288 266.51 54.3874 266.651 54.0891C266.793 53.7892 266.99 53.5547 267.24 53.3857C267.492 53.215 267.783 53.1296 268.112 53.1296C268.32 53.1296 268.519 53.1677 268.712 53.244C268.904 53.3185 269.076 53.4337 269.229 53.5895C269.383 53.7436 269.505 53.9383 269.594 54.1737C269.684 54.4073 269.728 54.6841 269.728 55.0039V55.2227H266.745V54.8324H269.276C269.276 54.5871 269.226 54.3667 269.127 54.1712C269.029 53.974 268.892 53.8182 268.717 53.7038C268.543 53.5895 268.341 53.5323 268.112 53.5323C267.871 53.5323 267.658 53.5969 267.474 53.7262C267.29 53.8555 267.146 54.0262 267.041 54.2383C266.938 54.4504 266.886 54.6824 266.884 54.9343V55.168C266.884 55.4712 266.937 55.7364 267.041 55.9634C267.147 56.1888 267.297 56.3636 267.491 56.4879C267.685 56.6122 267.914 56.6744 268.18 56.6744C268.36 56.6744 268.518 56.6462 268.654 56.5898C268.792 56.5335 268.907 56.4581 269 56.3636C269.094 56.2675 269.166 56.1623 269.214 56.0479L269.634 56.1847C269.576 56.3454 269.48 56.4937 269.348 56.6296C269.217 56.7655 269.053 56.8749 268.856 56.9577C268.66 57.0389 268.435 57.0795 268.18 57.0795ZM271.146 54.6136V57H270.703V53.1818H271.133V53.7809H271.173C271.263 53.5853 271.402 53.4287 271.591 53.3111C271.781 53.1918 272.017 53.1321 272.297 53.1321C272.554 53.1321 272.779 53.186 272.973 53.2937C273.168 53.3997 273.32 53.5563 273.428 53.7635C273.537 53.9706 273.592 54.225 273.592 54.5266V57H273.149V54.554C273.149 54.2408 273.061 53.993 272.886 53.8107C272.712 53.6284 272.478 53.5373 272.185 53.5373C271.984 53.5373 271.806 53.5804 271.65 53.6665C271.495 53.7527 271.371 53.877 271.28 54.0394C271.191 54.2002 271.146 54.3916 271.146 54.6136ZM277.322 54.0195L276.917 54.1339C276.877 54.0195 276.821 53.916 276.748 53.8232C276.675 53.7304 276.58 53.6566 276.462 53.6019C276.346 53.5472 276.202 53.5199 276.03 53.5199C275.771 53.5199 275.559 53.5812 275.393 53.7038C275.228 53.8265 275.145 53.9847 275.145 54.1786C275.145 54.3427 275.201 54.4761 275.314 54.5788C275.428 54.6799 275.604 54.7603 275.841 54.82L276.418 54.9616C276.737 55.0395 276.977 55.163 277.136 55.332C277.297 55.5011 277.377 55.7132 277.377 55.9684C277.377 56.1838 277.317 56.3752 277.198 56.5426C277.079 56.71 276.912 56.8417 276.698 56.9379C276.486 57.0323 276.24 57.0795 275.96 57.0795C275.587 57.0795 275.28 56.9959 275.038 56.8285C274.796 56.6594 274.641 56.4158 274.573 56.0977L274.998 55.9933C275.053 56.2203 275.16 56.3918 275.319 56.5078C275.48 56.6238 275.691 56.6818 275.953 56.6818C276.246 56.6818 276.48 56.6164 276.656 56.4854C276.832 56.3529 276.92 56.1871 276.92 55.9883C276.92 55.8342 276.868 55.7049 276.766 55.6005C276.663 55.4944 276.507 55.4165 276.298 55.3668L275.674 55.2177C275.343 55.1381 275.098 55.0122 274.938 54.8398C274.779 54.6675 274.7 54.4537 274.7 54.1985C274.7 53.988 274.757 53.8033 274.871 53.6442C274.986 53.4834 275.143 53.3575 275.344 53.2663C275.544 53.1752 275.773 53.1296 276.03 53.1296C276.379 53.1296 276.659 53.2092 276.867 53.3683C277.078 53.5257 277.23 53.7428 277.322 54.0195ZM279.837 57.0795C279.496 57.0795 279.199 56.9942 278.945 56.8235C278.693 56.6528 278.498 56.4192 278.358 56.1225C278.219 55.8259 278.15 55.4878 278.15 55.1083C278.15 54.7255 278.22 54.3849 278.361 54.0866C278.503 53.7884 278.701 53.5547 278.952 53.3857C279.204 53.215 279.497 53.1296 279.83 53.1296C280.085 53.1296 280.316 53.1793 280.523 53.2788C280.731 53.3765 280.901 53.5149 281.036 53.6939C281.171 53.8712 281.257 54.0784 281.292 54.3153H280.844C280.798 54.0999 280.686 53.916 280.509 53.7635C280.333 53.6094 280.109 53.5323 279.837 53.5323C279.594 53.5323 279.378 53.5986 279.191 53.7312C279.004 53.8621 278.857 54.0452 278.751 54.2805C278.647 54.5142 278.594 54.7852 278.594 55.0934C278.594 55.4033 278.646 55.6776 278.749 55.9162C278.851 56.1532 278.996 56.3388 279.181 56.473C279.368 56.6072 279.587 56.6744 279.837 56.6744C280.006 56.6744 280.161 56.6429 280.3 56.5799C280.441 56.5153 280.558 56.4241 280.653 56.3065C280.749 56.1888 280.813 56.0488 280.847 55.8864H281.294C281.261 56.1167 281.179 56.3222 281.048 56.5028C280.919 56.6818 280.75 56.8227 280.543 56.9254C280.338 57.0282 280.103 57.0795 279.837 57.0795ZM282.685 54.6136V57H282.242V51.9091H282.685V53.7809H282.725C282.814 53.5837 282.952 53.4263 283.14 53.3086C283.329 53.1909 283.567 53.1321 283.856 53.1321C284.114 53.1321 284.341 53.1851 284.537 53.2912C284.732 53.3973 284.885 53.5539 284.994 53.761C285.104 53.9682 285.158 54.2234 285.158 54.5266V57H284.713V54.554C284.713 54.2391 284.625 53.9914 284.45 53.8107C284.276 53.6284 284.04 53.5373 283.744 53.5373C283.54 53.5373 283.358 53.5804 283.199 53.6665C283.04 53.7527 282.914 53.877 282.822 54.0394C282.73 54.2002 282.685 54.3916 282.685 54.6136ZM288.75 55.5408V53.1818H289.192V57H288.75V56.3661H288.715C288.625 56.5617 288.484 56.7249 288.29 56.8558C288.096 56.9851 287.859 57.0497 287.579 57.0497C287.335 57.0497 287.119 56.9967 286.93 56.8906C286.741 56.7829 286.593 56.6255 286.485 56.4183C286.377 56.2112 286.323 55.9568 286.323 55.6552V53.1818H286.766V55.6278C286.766 55.9261 286.854 56.1664 287.029 56.3487C287.205 56.5294 287.43 56.6197 287.706 56.6197C287.878 56.6197 288.044 56.5782 288.203 56.4954C288.362 56.4125 288.493 56.2915 288.595 56.1325C288.698 55.9717 288.75 55.7745 288.75 55.5408ZM291.867 53.1818V53.5671H290.045V53.1818H291.867ZM290.615 52.267H291.059V56.0032C291.059 56.1623 291.087 56.2874 291.142 56.3786C291.196 56.468 291.267 56.5318 291.355 56.57C291.443 56.6064 291.537 56.6246 291.636 56.6246C291.694 56.6246 291.744 56.6213 291.785 56.6147C291.827 56.6064 291.863 56.5981 291.895 56.5898L291.989 56.9901C291.946 57.0066 291.893 57.0215 291.83 57.0348C291.767 57.0497 291.689 57.0572 291.596 57.0572C291.434 57.0572 291.277 57.0215 291.127 56.9503C290.977 56.879 290.855 56.773 290.759 56.6321C290.663 56.4912 290.615 56.3164 290.615 56.1076V52.267ZM292.753 57V56.6495L294.96 53.6317V53.5994H292.847V53.1818H295.53V53.5472L293.362 56.5501V56.5824H295.609V57H292.753Z" fill="#C7C7C7"/>
<path d="M216.997 58.392H252.691V58.8693H216.997V58.392ZM254.663 58.392H295.999V58.8693H254.663V58.392Z" fill="#C7C7C7"/>
<path d="M195.326 39.6364C195.326 40.5455 195.164 41.3366 194.84 42.0099C194.516 42.6804 194.07 43.2003 193.502 43.5696C192.936 43.9361 192.286 44.1193 191.55 44.1193C190.814 44.1193 190.162 43.9361 189.594 43.5696C189.029 43.2003 188.584 42.6804 188.26 42.0099C187.939 41.3366 187.779 40.5455 187.779 39.6364C187.779 38.7273 187.939 37.9375 188.26 37.267C188.584 36.5937 189.03 36.0739 189.598 35.7074C190.167 35.3381 190.817 35.1534 191.55 35.1534C192.286 35.1534 192.936 35.3381 193.502 35.7074C194.07 36.0739 194.516 36.5937 194.84 37.267C195.164 37.9375 195.326 38.7273 195.326 39.6364ZM194.55 39.6364C194.55 38.8551 194.419 38.1861 194.158 37.6293C193.897 37.0696 193.54 36.642 193.088 36.3466C192.637 36.0511 192.124 35.9034 191.55 35.9034C190.979 35.9034 190.468 36.0511 190.016 36.3466C189.564 36.642 189.206 37.0682 188.942 37.625C188.681 38.1818 188.55 38.8523 188.55 39.6364C188.55 40.4176 188.681 41.0866 188.942 41.6435C189.203 42.2003 189.56 42.6278 190.012 42.9261C190.463 43.2216 190.976 43.3693 191.55 43.3693C192.124 43.3693 192.637 43.2216 193.088 42.9261C193.543 42.6307 193.901 42.2045 194.162 41.6477C194.424 41.0881 194.553 40.4176 194.55 39.6364ZM197.854 39.9091V44H197.095V37.4545H197.832V38.4815H197.901C198.054 38.1463 198.293 37.8778 198.616 37.6761C198.943 37.4716 199.347 37.3693 199.827 37.3693C200.267 37.3693 200.653 37.4616 200.986 37.6463C201.321 37.8281 201.581 38.0966 201.766 38.4517C201.953 38.8068 202.047 39.2429 202.047 39.7599V44H201.288V39.8068C201.288 39.2699 201.138 38.8452 200.837 38.5327C200.538 38.2202 200.138 38.0639 199.635 38.0639C199.291 38.0639 198.986 38.1378 198.719 38.2855C198.452 38.4332 198.24 38.6463 198.084 38.9247C197.93 39.2003 197.854 39.5284 197.854 39.9091ZM206.691 44.1364C206.08 44.1364 205.551 43.9943 205.105 43.7102C204.659 43.4233 204.314 43.027 204.07 42.5213C203.828 42.0128 203.708 41.4276 203.708 40.7656C203.708 40.1065 203.828 39.5213 204.07 39.0099C204.314 38.4957 204.651 38.0937 205.08 37.804C205.512 37.5114 206.01 37.3651 206.576 37.3651C206.931 37.3651 207.273 37.4304 207.603 37.5611C207.932 37.6889 208.228 37.8864 208.489 38.1534C208.753 38.4176 208.962 38.7514 209.115 39.1548C209.269 39.5554 209.346 40.0298 209.346 40.5781V40.9531H204.232V40.2841H208.57C208.57 39.8636 208.485 39.4858 208.314 39.1506C208.147 38.8125 207.912 38.5455 207.611 38.3494C207.313 38.1534 206.968 38.0554 206.576 38.0554C206.161 38.0554 205.796 38.1662 205.48 38.3878C205.165 38.6094 204.918 38.902 204.739 39.2656C204.563 39.6293 204.473 40.027 204.471 40.4588V40.8594C204.471 41.3793 204.56 41.8338 204.739 42.223C204.921 42.6094 205.178 42.9091 205.51 43.1222C205.843 43.3352 206.236 43.4418 206.691 43.4418C207 43.4418 207.272 43.3935 207.505 43.2969C207.74 43.2003 207.938 43.071 208.097 42.9091C208.259 42.7443 208.381 42.5639 208.463 42.3679L209.184 42.6023C209.084 42.8778 208.921 43.1321 208.694 43.3651C208.469 43.598 208.188 43.7855 207.85 43.9276C207.515 44.0668 207.128 44.1364 206.691 44.1364ZM215.176 41.4986V37.4545H215.935V44H215.176V42.9134H215.116C214.963 43.2486 214.72 43.5284 214.388 43.7528C214.055 43.9744 213.649 44.0852 213.169 44.0852C212.751 44.0852 212.381 43.9943 212.057 43.8125C211.733 43.6278 211.479 43.358 211.294 43.0028C211.109 42.6477 211.017 42.2116 211.017 41.6946V37.4545H211.776V41.6477C211.776 42.1591 211.926 42.571 212.227 42.8835C212.528 43.1932 212.915 43.348 213.386 43.348C213.682 43.348 213.966 43.277 214.239 43.1349C214.511 42.9929 214.736 42.7855 214.912 42.5128C215.088 42.2372 215.176 41.8991 215.176 41.4986ZM217.943 46.4545V37.4545H218.68V38.7031H218.77C218.86 38.5071 218.985 38.3068 219.145 38.1023C219.304 37.8949 219.514 37.7202 219.775 37.5781C220.039 37.4361 220.372 37.3651 220.772 37.3651C221.312 37.3651 221.784 37.5071 222.187 37.7912C222.593 38.0724 222.909 38.4673 223.133 38.9759C223.36 39.4815 223.474 40.071 223.474 40.7443C223.474 41.4205 223.36 42.0128 223.133 42.5213C222.909 43.0298 222.593 43.4261 222.187 43.7102C221.784 43.9943 221.315 44.1364 220.781 44.1364C220.386 44.1364 220.055 44.0653 219.788 43.9233C219.524 43.7812 219.309 43.6065 219.145 43.3991C218.983 43.1889 218.858 42.9844 218.77 42.7855H218.701V46.4545H217.943ZM218.693 40.7315C218.693 41.2599 218.771 41.7287 218.927 42.1378C219.086 42.544 219.314 42.8636 219.609 43.0966C219.907 43.3267 220.268 43.4418 220.691 43.4418C221.126 43.4418 221.493 43.3224 221.791 43.0838C222.092 42.8423 222.321 42.517 222.477 42.108C222.636 41.6989 222.716 41.2401 222.716 40.7315C222.716 40.2287 222.637 39.7756 222.481 39.3722C222.328 38.9687 222.1 38.6491 221.799 38.4134C221.498 38.1747 221.129 38.0554 220.691 38.0554C220.265 38.0554 219.903 38.1705 219.605 38.4006C219.306 38.6278 219.079 38.9432 218.923 39.3466C218.77 39.7472 218.693 40.2088 218.693 40.7315ZM230.188 44L227.797 35.2727H228.607L230.584 42.777H230.652L232.63 35.2727H233.55L235.527 42.777H235.596L237.573 35.2727H238.387L235.996 44H235.144L233.12 36.598H233.064L231.04 44H230.188ZM241.706 44.1364C241.096 44.1364 240.567 43.9943 240.121 43.7102C239.675 43.4233 239.33 43.027 239.086 42.5213C238.844 42.0128 238.723 41.4276 238.723 40.7656C238.723 40.1065 238.844 39.5213 239.086 39.0099C239.33 38.4957 239.667 38.0937 240.096 37.804C240.527 37.5114 241.026 37.3651 241.591 37.3651C241.946 37.3651 242.289 37.4304 242.618 37.5611C242.948 37.6889 243.243 37.8864 243.505 38.1534C243.769 38.4176 243.978 38.7514 244.131 39.1548C244.284 39.5554 244.361 40.0298 244.361 40.5781V40.9531H239.248V40.2841H243.586C243.586 39.8636 243.5 39.4858 243.33 39.1506C243.162 38.8125 242.928 38.5455 242.627 38.3494C242.328 38.1534 241.983 38.0554 241.591 38.0554C241.176 38.0554 240.811 38.1662 240.496 38.3878C240.181 38.6094 239.934 38.902 239.755 39.2656C239.578 39.6293 239.489 40.027 239.486 40.4588V40.8594C239.486 41.3793 239.576 41.8338 239.755 42.223C239.936 42.6094 240.194 42.9091 240.526 43.1222C240.858 43.3352 241.252 43.4418 241.706 43.4418C242.016 43.4418 242.287 43.3935 242.52 43.2969C242.756 43.2003 242.953 43.071 243.113 42.9091C243.275 42.7443 243.397 42.5639 243.479 42.3679L244.199 42.6023C244.1 42.8778 243.936 43.1321 243.709 43.3651C243.485 43.598 243.203 43.7855 242.865 43.9276C242.53 44.0668 242.144 44.1364 241.706 44.1364ZM246.19 44V35.2727H246.953V38.7031H247.021C247.107 38.5071 247.229 38.3054 247.388 38.098C247.55 37.8906 247.761 37.7173 248.023 37.5781C248.287 37.4361 248.619 37.3651 249.02 37.3651C249.557 37.3651 250.028 37.5071 250.435 37.7912C250.841 38.0724 251.158 38.4673 251.385 38.9759C251.612 39.4815 251.726 40.071 251.726 40.7443C251.726 41.4205 251.612 42.0128 251.385 42.5213C251.161 43.0298 250.845 43.4261 250.439 43.7102C250.036 43.9943 249.567 44.1364 249.033 44.1364C248.635 44.1364 248.303 44.0653 248.036 43.9233C247.771 43.7812 247.558 43.6065 247.396 43.3991C247.234 43.1889 247.109 42.9844 247.021 42.7855H246.928V44H246.19ZM246.94 40.7315C246.94 41.2599 247.018 41.7287 247.175 42.1378C247.334 42.544 247.561 42.8636 247.857 43.0966C248.155 43.3267 248.516 43.4418 248.939 43.4418C249.374 43.4418 249.741 43.3224 250.043 43.0838C250.344 42.8423 250.572 42.517 250.729 42.108C250.885 41.6989 250.963 41.2401 250.963 40.7315C250.963 40.2287 250.885 39.7756 250.729 39.3722C250.575 38.9687 250.348 38.6491 250.047 38.4134C249.746 38.1747 249.376 38.0554 248.939 38.0554C248.513 38.0554 248.151 38.1705 247.852 38.4006C247.557 38.6278 247.331 38.9432 247.175 39.3466C247.018 39.7472 246.94 40.2088 246.94 40.7315ZM256.938 44H256.102L259.277 35.2727H260.129L263.304 44H262.469L259.733 36.3082H259.673L256.938 44ZM257.538 40.6548H261.868V41.3707H257.538V40.6548ZM267.139 46.5909C266.693 46.5909 266.303 46.5327 265.967 46.4162C265.632 46.3026 265.349 46.1463 265.119 45.9474C264.889 45.7486 264.71 45.5256 264.582 45.2784L265.205 44.8693C265.298 45.0341 265.423 45.196 265.58 45.3551C265.739 45.5142 265.945 45.6463 266.197 45.7514C266.453 45.8565 266.767 45.9091 267.139 45.9091C267.719 45.9091 268.186 45.7642 268.541 45.4744C268.899 45.1847 269.078 44.7344 269.078 44.1236V42.6491H269.01C268.922 42.848 268.795 43.0469 268.631 43.2457C268.466 43.4418 268.25 43.6051 267.983 43.7358C267.719 43.8665 267.391 43.9318 266.999 43.9318C266.476 43.9318 266.011 43.8026 265.605 43.544C265.202 43.2855 264.884 42.9162 264.651 42.4361C264.42 41.9531 264.305 41.3778 264.305 40.7102C264.305 40.0483 264.418 39.4659 264.642 38.9631C264.869 38.4602 265.186 38.0682 265.592 37.7869C265.999 37.5057 266.472 37.3651 267.011 37.3651C267.412 37.3651 267.744 37.4361 268.009 37.5781C268.273 37.7173 268.484 37.8906 268.643 38.098C268.805 38.3054 268.932 38.5071 269.023 38.7031H269.099V37.4545H269.841V44.1705C269.841 44.7244 269.723 45.1804 269.487 45.5384C269.251 45.8963 268.93 46.1605 268.524 46.331C268.118 46.5043 267.656 46.5909 267.139 46.5909ZM267.088 43.2372C267.509 43.2372 267.868 43.1364 268.166 42.9347C268.464 42.7301 268.693 42.4375 268.852 42.0568C269.011 41.6761 269.091 41.223 269.091 40.6974C269.091 40.1861 269.013 39.733 268.857 39.3381C268.7 38.9403 268.473 38.6278 268.175 38.4006C267.879 38.1705 267.517 38.0554 267.088 38.0554C266.651 38.0554 266.281 38.1733 265.98 38.4091C265.679 38.6449 265.452 38.9631 265.298 39.3636C265.145 39.7614 265.068 40.206 265.068 40.6974C265.068 41.1974 265.146 41.6392 265.303 42.0227C265.459 42.4034 265.688 42.7017 265.989 42.9176C266.29 43.1307 266.656 43.2372 267.088 43.2372ZM274.495 44.1364C273.885 44.1364 273.356 43.9943 272.91 43.7102C272.464 43.4233 272.119 43.027 271.875 42.5213C271.633 42.0128 271.512 41.4276 271.512 40.7656C271.512 40.1065 271.633 39.5213 271.875 39.0099C272.119 38.4957 272.456 38.0937 272.885 37.804C273.316 37.5114 273.815 37.3651 274.38 37.3651C274.735 37.3651 275.078 37.4304 275.407 37.5611C275.737 37.6889 276.032 37.8864 276.294 38.1534C276.558 38.4176 276.767 38.7514 276.92 39.1548C277.074 39.5554 277.15 40.0298 277.15 40.5781V40.9531H272.037V40.2841H276.375C276.375 39.8636 276.289 39.4858 276.119 39.1506C275.951 38.8125 275.717 38.5455 275.416 38.3494C275.118 38.1534 274.772 38.0554 274.38 38.0554C273.966 38.0554 273.6 38.1662 273.285 38.3878C272.97 38.6094 272.723 38.902 272.544 39.2656C272.368 39.6293 272.278 40.027 272.275 40.4588V40.8594C272.275 41.3793 272.365 41.8338 272.544 42.223C272.725 42.6094 272.983 42.9091 273.315 43.1222C273.647 43.3352 274.041 43.4418 274.495 43.4418C274.805 43.4418 275.076 43.3935 275.309 43.2969C275.545 43.2003 275.743 43.071 275.902 42.9091C276.064 42.7443 276.186 42.5639 276.268 42.3679L276.988 42.6023C276.889 42.8778 276.725 43.1321 276.498 43.3651C276.274 43.598 275.993 43.7855 275.654 43.9276C275.319 44.0668 274.933 44.1364 274.495 44.1364ZM279.58 39.9091V44H278.822V37.4545H279.559V38.4815H279.627C279.781 38.1463 280.019 37.8778 280.343 37.6761C280.67 37.4716 281.073 37.3693 281.553 37.3693C281.994 37.3693 282.38 37.4616 282.712 37.6463C283.048 37.8281 283.308 38.0966 283.492 38.4517C283.68 38.8068 283.773 39.2429 283.773 39.7599V44H283.015V39.8068C283.015 39.2699 282.864 38.8452 282.563 38.5327C282.265 38.2202 281.864 38.0639 281.362 38.0639C281.018 38.0639 280.712 38.1378 280.445 38.2855C280.178 38.4332 279.967 38.6463 279.81 38.9247C279.657 39.2003 279.58 39.5284 279.58 39.9091ZM288.328 44.1364C287.743 44.1364 287.233 43.9901 286.798 43.6974C286.366 43.4048 286.031 43.0043 285.792 42.4957C285.554 41.9872 285.434 41.4077 285.434 40.7571C285.434 40.1009 285.555 39.517 285.797 39.0057C286.041 38.4943 286.379 38.0937 286.811 37.804C287.243 37.5114 287.744 37.3651 288.315 37.3651C288.752 37.3651 289.149 37.4503 289.504 37.6207C289.859 37.7884 290.152 38.0256 290.382 38.3324C290.615 38.6364 290.761 38.9915 290.821 39.3977H290.054C289.974 39.0284 289.782 38.7131 289.478 38.4517C289.177 38.1875 288.794 38.0554 288.328 38.0554C287.91 38.0554 287.541 38.169 287.22 38.3963C286.899 38.6207 286.647 38.9347 286.466 39.3381C286.287 39.7386 286.197 40.2031 286.197 40.7315C286.197 41.2628 286.285 41.733 286.461 42.142C286.637 42.5483 286.885 42.8665 287.203 43.0966C287.524 43.3267 287.899 43.4418 288.328 43.4418C288.618 43.4418 288.882 43.3878 289.12 43.2798C289.362 43.169 289.564 43.0128 289.725 42.8111C289.89 42.6094 290.001 42.3693 290.058 42.0909H290.825C290.768 42.4858 290.627 42.8381 290.403 43.1477C290.181 43.4545 289.893 43.696 289.538 43.8722C289.186 44.0483 288.782 44.1364 288.328 44.1364ZM292.979 46.4545C292.828 46.4545 292.688 46.4403 292.557 46.4119C292.426 46.3835 292.323 46.3523 292.246 46.3182L292.451 45.6491C292.709 45.7287 292.939 45.7571 293.141 45.7344C293.343 45.7145 293.522 45.6236 293.678 45.4616C293.834 45.3026 293.973 45.0582 294.096 44.7287L294.334 44.0639L291.926 37.4545H292.749L294.692 42.9986H294.752L296.695 37.4545H297.517L294.748 45.0355C294.631 45.3509 294.488 45.6136 294.317 45.8239C294.147 46.0369 293.949 46.1946 293.725 46.2969C293.503 46.402 293.255 46.4545 292.979 46.4545Z" fill="#040404"/>
<defs>
<linearGradient id="paint0_linear_103_459" x1="14.6182" y1="44.9703" x2="43.0018" y2="45.0228" gradientUnits="userSpaceOnUse">
<stop stop-color="#FF0460"/>
<stop offset="0.0001" stop-color="#FF0460"/>
<stop offset="1" stop-color="#FFCF11"/>
</linearGradient>
</defs>
</svg>
