<svg width="33" height="33" viewBox="0 0 33 33" fill="none" xmlns="http://www.w3.org/2000/svg">
<path fill-rule="evenodd" clip-rule="evenodd" d="M0 7.07143C0 3.16599 3.16599 0 7.07143 0H25.9286C29.834 0 33 3.16599 33 7.07143V25.9286C33 29.834 29.834 33 25.9286 33H7.07143C3.16599 33 0 29.834 0 25.9286V7.07143ZM20.3484 14.7987C20.3484 18.3744 17.4496 21.2732 13.8739 21.2732C10.2981 21.2732 7.39941 18.3744 7.39941 14.7987C7.39941 11.2229 10.2981 8.32422 13.8739 8.32422C17.4496 8.32422 20.3484 11.2229 20.3484 14.7987ZM23.1232 26.8227C25.1665 26.8227 26.8229 25.1663 26.8229 23.123C26.8229 21.0798 25.1665 19.4233 23.1232 19.4233C21.0799 19.4233 19.4235 21.0798 19.4235 23.123C19.4235 25.1663 21.0799 26.8227 23.1232 26.8227Z" fill="white"/>
</svg>
