<svg width="107" height="131" viewBox="0 0 107 131" fill="none" xmlns="http://www.w3.org/2000/svg">
<path d="M16.6451 100V93.4545H17.6167V94.4773H17.7019C17.8382 94.1278 18.0584 93.8565 18.3624 93.6634C18.6664 93.4673 19.0314 93.3693 19.4576 93.3693C19.8894 93.3693 20.2488 93.4673 20.5357 93.6634C20.8255 93.8565 21.0513 94.1278 21.2132 94.4773H21.2814C21.449 94.1392 21.7005 93.8707 22.0357 93.6719C22.3709 93.4702 22.7729 93.3693 23.2417 93.3693C23.8269 93.3693 24.3056 93.5526 24.6777 93.919C25.0499 94.2827 25.236 94.8494 25.236 95.6193V100H24.2303V95.6193C24.2303 95.1364 24.0982 94.7912 23.834 94.5838C23.5698 94.3764 23.2587 94.2727 22.9007 94.2727C22.4405 94.2727 22.084 94.4119 21.8311 94.6903C21.5783 94.9659 21.4519 95.3153 21.4519 95.7386V100H20.4292V95.517C20.4292 95.1449 20.3084 94.8452 20.0669 94.6179C19.8255 94.3878 19.5144 94.2727 19.1337 94.2727C18.8723 94.2727 18.628 94.3423 18.4007 94.4815C18.1763 94.6207 17.9945 94.8139 17.8553 95.0611C17.7189 95.3054 17.6507 95.5881 17.6507 95.9091V100H16.6451ZM29.8191 100.136C29.1884 100.136 28.6444 99.9972 28.187 99.7188C27.7324 99.4375 27.3816 99.0455 27.1344 98.5426C26.8901 98.0369 26.7679 97.4489 26.7679 96.7784C26.7679 96.108 26.8901 95.517 27.1344 95.0057C27.3816 94.4915 27.7253 94.0909 28.1657 93.804C28.6088 93.5142 29.1259 93.3693 29.7168 93.3693C30.0577 93.3693 30.3944 93.4261 30.7267 93.5398C31.0591 93.6534 31.3617 93.8381 31.6344 94.0938C31.9071 94.3466 32.1245 94.6818 32.2864 95.0994C32.4483 95.517 32.5293 96.0312 32.5293 96.642V97.0682H27.4838V96.1989H31.5066C31.5066 95.8295 31.4327 95.5 31.285 95.2102C31.1401 94.9205 30.9327 94.6918 30.6628 94.5241C30.3958 94.3565 30.0804 94.2727 29.7168 94.2727C29.3162 94.2727 28.9696 94.3722 28.677 94.571C28.3873 94.767 28.1642 95.0227 28.008 95.3381C27.8517 95.6534 27.7736 95.9915 27.7736 96.3523V96.9318C27.7736 97.4261 27.8588 97.8452 28.0293 98.1889C28.2026 98.5298 28.4426 98.7898 28.7495 98.9688C29.0563 99.1449 29.4128 99.233 29.8191 99.233C30.0833 99.233 30.3219 99.196 30.535 99.1222C30.7509 99.0455 30.937 98.9318 31.0932 98.7812C31.2495 98.6278 31.3702 98.4375 31.4554 98.2102L32.427 98.483C32.3248 98.8125 32.1529 99.1023 31.9114 99.3523C31.6699 99.5994 31.3716 99.7926 31.0165 99.9318C30.6614 100.068 30.2623 100.136 29.8191 100.136ZM35.0648 96.0625V100H34.0591V91.2727H35.0648V94.4773H35.15C35.3034 94.1392 35.5336 93.8707 35.8404 93.6719C36.15 93.4702 36.562 93.3693 37.0762 93.3693C37.5222 93.3693 37.9128 93.4588 38.248 93.6378C38.5833 93.8139 38.8432 94.0852 39.0279 94.4517C39.2154 94.8153 39.3091 95.2784 39.3091 95.8409V100H38.3034V95.9091C38.3034 95.3892 38.1685 94.9872 37.8986 94.7031C37.6316 94.4162 37.2608 94.2727 36.7864 94.2727C36.4569 94.2727 36.1614 94.3423 35.9 94.4815C35.6415 94.6207 35.437 94.8239 35.2864 95.0909C35.1387 95.358 35.0648 95.6818 35.0648 96.0625ZM41.149 100V93.4545H42.1206V94.4432H42.1887C42.3081 94.1193 42.524 93.8565 42.8365 93.6548C43.149 93.4531 43.5012 93.3523 43.8933 93.3523C43.9672 93.3523 44.0595 93.3537 44.1703 93.3565C44.2811 93.3594 44.3649 93.3636 44.4217 93.3693V94.392C44.3876 94.3835 44.3095 94.3707 44.1873 94.3537C44.068 94.3338 43.9416 94.3239 43.8081 94.3239C43.4899 94.3239 43.2058 94.3906 42.9558 94.5241C42.7086 94.6548 42.5126 94.8366 42.3677 95.0696C42.2257 95.2997 42.1547 95.5625 42.1547 95.858V100H41.149ZM54.8525 91.2727H55.9093V97.0511C55.9093 97.6477 55.7686 98.1804 55.4874 98.6491C55.209 99.1151 54.8155 99.483 54.307 99.7528C53.7985 100.02 53.2019 100.153 52.5172 100.153C51.8326 100.153 51.236 100.02 50.7275 99.7528C50.2189 99.483 49.824 99.1151 49.5428 98.6491C49.2644 98.1804 49.1252 97.6477 49.1252 97.0511V91.2727H50.182V96.9659C50.182 97.392 50.2757 97.7713 50.4632 98.1037C50.6507 98.4332 50.9178 98.6932 51.2644 98.8835C51.6138 99.071 52.0314 99.1648 52.5172 99.1648C53.003 99.1648 53.4206 99.071 53.7701 98.8835C54.1195 98.6932 54.3865 98.4332 54.5712 98.1037C54.7587 97.7713 54.8525 97.392 54.8525 96.9659V91.2727ZM57.8833 100V93.4545H58.8549V94.4773H58.9402C59.0765 94.1278 59.2967 93.8565 59.6007 93.6634C59.9047 93.4673 60.2697 93.3693 60.6958 93.3693C61.1277 93.3693 61.487 93.4673 61.774 93.6634C62.0637 93.8565 62.2896 94.1278 62.4515 94.4773H62.5197C62.6873 94.1392 62.9387 93.8707 63.274 93.6719C63.6092 93.4702 64.0112 93.3693 64.4799 93.3693C65.0652 93.3693 65.5439 93.5526 65.916 93.919C66.2882 94.2827 66.4743 94.8494 66.4743 95.6193V100H65.4686V95.6193C65.4686 95.1364 65.3365 94.7912 65.0723 94.5838C64.8081 94.3764 64.497 94.2727 64.139 94.2727C63.6788 94.2727 63.3223 94.4119 63.0694 94.6903C62.8166 94.9659 62.6902 95.3153 62.6902 95.7386V100H61.6674V95.517C61.6674 95.1449 61.5467 94.8452 61.3052 94.6179C61.0637 94.3878 60.7527 94.2727 60.372 94.2727C60.1106 94.2727 59.8663 94.3423 59.639 94.4815C59.4146 94.6207 59.2328 94.8139 59.0936 95.0611C58.9572 95.3054 58.889 95.5881 58.889 95.9091V100H57.8833ZM72.9494 94.9205L72.046 95.1761C71.9892 95.0256 71.9054 94.8793 71.7946 94.7372C71.6866 94.5923 71.5389 94.473 71.3514 94.3793C71.1639 94.2855 70.9238 94.2386 70.6312 94.2386C70.2306 94.2386 69.8968 94.331 69.6298 94.5156C69.3656 94.6974 69.2335 94.929 69.2335 95.2102C69.2335 95.4602 69.3244 95.6577 69.5062 95.8026C69.688 95.9474 69.9721 96.0682 70.3585 96.1648L71.3301 96.4034C71.9153 96.5455 72.3514 96.7628 72.6383 97.0554C72.9252 97.3452 73.0687 97.7187 73.0687 98.1761C73.0687 98.5511 72.9608 98.8864 72.7449 99.1818C72.5318 99.4773 72.2335 99.7102 71.85 99.8807C71.4664 100.051 71.0204 100.136 70.5119 100.136C69.8443 100.136 69.2917 99.9915 68.8542 99.7017C68.4167 99.4119 68.1397 98.9886 68.0233 98.4318L68.9778 98.1932C69.0687 98.5455 69.2406 98.8097 69.4934 98.9858C69.7491 99.1619 70.0829 99.25 70.4949 99.25C70.9636 99.25 71.3358 99.1506 71.6113 98.9517C71.8897 98.75 72.0289 98.5085 72.0289 98.2273C72.0289 98 71.9494 97.8097 71.7903 97.6562C71.6312 97.5 71.3869 97.3835 71.0574 97.3068L69.9664 97.0511C69.367 96.9091 68.9267 96.6889 68.6454 96.3906C68.367 96.0895 68.2278 95.7131 68.2278 95.2614C68.2278 94.892 68.3315 94.5653 68.5389 94.2812C68.7491 93.9972 69.0346 93.7741 69.3954 93.6122C69.7591 93.4503 70.171 93.3693 70.6312 93.3693C71.2789 93.3693 71.7875 93.5114 72.1568 93.7955C72.5289 94.0795 72.7931 94.4545 72.9494 94.9205ZM76.5087 100.153C76.0939 100.153 75.7175 100.075 75.3794 99.919C75.0414 99.7599 74.7729 99.5312 74.574 99.233C74.3752 98.9318 74.2757 98.5682 74.2757 98.142C74.2757 97.767 74.3496 97.4631 74.4973 97.2301C74.6451 96.9943 74.8425 96.8097 75.0897 96.6761C75.3368 96.5426 75.6096 96.4432 75.9078 96.3778C76.209 96.3097 76.5115 96.2557 76.8155 96.2159C77.2132 96.1648 77.5357 96.1264 77.7828 96.1009C78.0328 96.0724 78.2147 96.0256 78.3283 95.9602C78.4448 95.8949 78.503 95.7812 78.503 95.6193V95.5852C78.503 95.1648 78.388 94.8381 78.1578 94.6051C77.9306 94.3722 77.5854 94.2557 77.1223 94.2557C76.6422 94.2557 76.2658 94.3608 75.9931 94.571C75.7203 94.7812 75.5286 95.0057 75.4178 95.2443L74.4632 94.9034C74.6337 94.5057 74.861 94.196 75.1451 93.9744C75.432 93.75 75.7445 93.5937 76.0826 93.5057C76.4235 93.4148 76.7587 93.3693 77.0882 93.3693C77.2985 93.3693 77.54 93.3949 77.8127 93.446C78.0882 93.4943 78.3539 93.5952 78.6096 93.7486C78.8681 93.902 79.0826 94.1335 79.253 94.4432C79.4235 94.7528 79.5087 95.1676 79.5087 95.6875V100H78.503V99.1136H78.4519C78.3837 99.2557 78.2701 99.4077 78.111 99.5696C77.9519 99.7315 77.7402 99.8693 77.476 99.983C77.2118 100.097 76.8894 100.153 76.5087 100.153ZM76.6621 99.25C77.0598 99.25 77.3951 99.1719 77.6678 99.0156C77.9434 98.8594 78.1507 98.6577 78.29 98.4105C78.432 98.1634 78.503 97.9034 78.503 97.6307V96.7102C78.4604 96.7614 78.3667 96.8082 78.2218 96.8509C78.0797 96.8906 77.915 96.9261 77.7275 96.9574C77.5428 96.9858 77.3624 97.0114 77.1863 97.0341C77.013 97.054 76.8723 97.071 76.7644 97.0852C76.503 97.1193 76.2587 97.1747 76.0314 97.2514C75.807 97.3253 75.6252 97.4375 75.486 97.5881C75.3496 97.7358 75.2814 97.9375 75.2814 98.1932C75.2814 98.5426 75.4107 98.8068 75.6692 98.9858C75.9306 99.1619 76.2615 99.25 76.6621 99.25ZM84.1909 93.4545V94.3068H80.7988V93.4545H84.1909ZM81.7875 91.8864H82.7931V98.125C82.7931 98.4091 82.8343 98.6222 82.9167 98.7642C83.002 98.9034 83.1099 98.9972 83.2406 99.0455C83.3741 99.0909 83.5147 99.1136 83.6625 99.1136C83.7733 99.1136 83.8642 99.108 83.9352 99.0966C84.0062 99.0824 84.063 99.071 84.1056 99.0625L84.3102 99.9659C84.242 99.9915 84.1468 100.017 84.0247 100.043C83.9025 100.071 83.7477 100.085 83.5602 100.085C83.2761 100.085 82.9977 100.024 82.725 99.902C82.4551 99.7798 82.2306 99.5938 82.0517 99.3438C81.8755 99.0938 81.7875 98.7784 81.7875 98.3977V91.8864ZM85.5162 100V99.233L89.2321 94.4602V94.392H85.6355V93.4545H90.5275V94.2557L86.9139 98.9943V99.0625H90.6468V100H85.5162ZM4.55025 115.136C4.00479 115.136 3.52326 114.999 3.10565 114.723C2.68803 114.445 2.36133 114.053 2.12553 113.547C1.88974 113.038 1.77184 112.438 1.77184 111.744C1.77184 111.057 1.88974 110.46 2.12553 109.955C2.36133 109.449 2.68945 109.058 3.10991 108.783C3.53036 108.507 4.01616 108.369 4.56729 108.369C4.99343 108.369 5.33008 108.44 5.57724 108.582C5.82724 108.722 6.01758 108.881 6.14826 109.06C6.28178 109.236 6.38548 109.381 6.45934 109.494H6.54457V106.273H7.55025V115H6.57866V113.994H6.45934C6.38548 114.114 6.28036 114.264 6.144 114.446C6.00763 114.625 5.81303 114.786 5.56019 114.928C5.30735 115.067 4.9707 115.136 4.55025 115.136ZM4.68661 114.233C5.09002 114.233 5.43093 114.128 5.70934 113.918C5.98775 113.705 6.1994 113.411 6.34428 113.036C6.48917 112.658 6.56161 112.222 6.56161 111.727C6.56161 111.239 6.49059 110.811 6.34854 110.445C6.2065 110.075 5.99627 109.788 5.71786 109.584C5.43945 109.376 5.0957 109.273 4.68661 109.273C4.26048 109.273 3.90536 109.382 3.62127 109.601C3.34002 109.817 3.12837 110.111 2.98633 110.483C2.84712 110.852 2.77752 111.267 2.77752 111.727C2.77752 112.193 2.84854 112.616 2.99059 112.997C3.13548 113.375 3.34854 113.676 3.62979 113.901C3.91389 114.122 4.26616 114.233 4.68661 114.233ZM13.6568 112.324V108.455H14.6625V115H13.6568V113.892H13.5886C13.4352 114.224 13.1966 114.507 12.8727 114.74C12.5488 114.97 12.1397 115.085 11.6454 115.085C11.2363 115.085 10.8727 114.996 10.5545 114.817C10.2363 114.635 9.98633 114.362 9.80451 113.999C9.62269 113.632 9.53178 113.17 9.53178 112.614V108.455H10.5375V112.545C10.5375 113.023 10.671 113.403 10.938 113.688C11.2079 113.972 11.5517 114.114 11.9693 114.114C12.2193 114.114 12.4735 114.05 12.7321 113.922C12.9934 113.794 13.2122 113.598 13.3883 113.334C13.5673 113.07 13.6568 112.733 13.6568 112.324ZM16.5044 115V108.455H17.476V109.443H17.5442C17.6635 109.119 17.8794 108.857 18.1919 108.655C18.5044 108.453 18.8567 108.352 19.2488 108.352C19.3226 108.352 19.415 108.354 19.5257 108.357C19.6365 108.359 19.7203 108.364 19.7772 108.369V109.392C19.7431 109.384 19.665 109.371 19.5428 109.354C19.4235 109.334 19.2971 109.324 19.1635 109.324C18.8453 109.324 18.5613 109.391 18.3113 109.524C18.0641 109.655 17.8681 109.837 17.7232 110.07C17.5811 110.3 17.5101 110.562 17.5101 110.858V115H16.5044ZM23.4292 115.136C22.8155 115.136 22.2871 114.991 21.8439 114.702C21.4007 114.412 21.0598 114.013 20.8212 113.504C20.5826 112.996 20.4632 112.415 20.4632 111.761C20.4632 111.097 20.5854 110.51 20.8297 110.001C21.0769 109.49 21.4206 109.091 21.861 108.804C22.3042 108.514 22.8212 108.369 23.4121 108.369C23.8723 108.369 24.2871 108.455 24.6564 108.625C25.0257 108.795 25.3283 109.034 25.5641 109.341C25.7999 109.648 25.9462 110.006 26.003 110.415H24.9973C24.9206 110.116 24.7502 109.852 24.486 109.622C24.2246 109.389 23.8723 109.273 23.4292 109.273C23.0371 109.273 22.6934 109.375 22.3979 109.58C22.1053 109.781 21.8766 110.067 21.7118 110.436C21.5499 110.803 21.4689 111.233 21.4689 111.727C21.4689 112.233 21.5485 112.673 21.7076 113.048C21.8695 113.423 22.0968 113.714 22.3894 113.922C22.6848 114.129 23.0314 114.233 23.4292 114.233C23.6905 114.233 23.9277 114.188 24.1408 114.097C24.3539 114.006 24.5343 113.875 24.682 113.705C24.8297 113.534 24.9348 113.33 24.9973 113.091H26.003C25.9462 113.477 25.8056 113.825 25.5811 114.135C25.3596 114.442 25.0655 114.686 24.699 114.868C24.3354 115.047 23.9121 115.136 23.4292 115.136ZM28.4789 111.062V115H27.4732V106.273H28.4789V109.477H28.5641C28.7175 109.139 28.9476 108.871 29.2544 108.672C29.5641 108.47 29.976 108.369 30.4902 108.369C30.9363 108.369 31.3269 108.459 31.6621 108.638C31.9973 108.814 32.2573 109.085 32.4419 109.452C32.6294 109.815 32.7232 110.278 32.7232 110.841V115H31.7175V110.909C31.7175 110.389 31.5826 109.987 31.3127 109.703C31.0456 109.416 30.6749 109.273 30.2005 109.273C29.8709 109.273 29.5755 109.342 29.3141 109.482C29.0556 109.621 28.851 109.824 28.7005 110.091C28.5527 110.358 28.4789 110.682 28.4789 111.062ZM40.6824 115.136C40.0517 115.136 39.5076 114.997 39.0502 114.719C38.5957 114.438 38.2449 114.045 37.9977 113.543C37.7534 113.037 37.6312 112.449 37.6312 111.778C37.6312 111.108 37.7534 110.517 37.9977 110.006C38.2449 109.491 38.5886 109.091 39.0289 108.804C39.4721 108.514 39.9892 108.369 40.5801 108.369C40.921 108.369 41.2576 108.426 41.59 108.54C41.9224 108.653 42.225 108.838 42.4977 109.094C42.7704 109.347 42.9877 109.682 43.1497 110.099C43.3116 110.517 43.3926 111.031 43.3926 111.642V112.068H38.3471V111.199H42.3699C42.3699 110.83 42.296 110.5 42.1483 110.21C42.0034 109.92 41.796 109.692 41.5261 109.524C41.2591 109.357 40.9437 109.273 40.5801 109.273C40.1795 109.273 39.8329 109.372 39.5403 109.571C39.2505 109.767 39.0275 110.023 38.8713 110.338C38.715 110.653 38.6369 110.991 38.6369 111.352V111.932C38.6369 112.426 38.7221 112.845 38.8926 113.189C39.0659 113.53 39.3059 113.79 39.6127 113.969C39.9196 114.145 40.2761 114.233 40.6824 114.233C40.9466 114.233 41.1852 114.196 41.3983 114.122C41.6142 114.045 41.8002 113.932 41.9565 113.781C42.1127 113.628 42.2335 113.437 42.3187 113.21L43.2903 113.483C43.188 113.812 43.0162 114.102 42.7747 114.352C42.5332 114.599 42.2349 114.793 41.8798 114.932C41.5247 115.068 41.1255 115.136 40.6824 115.136ZM44.9224 115V108.455H45.894V109.477H45.9792C46.1156 109.128 46.3358 108.857 46.6397 108.663C46.9437 108.467 47.3088 108.369 47.7349 108.369C48.1667 108.369 48.5261 108.467 48.813 108.663C49.1028 108.857 49.3287 109.128 49.4906 109.477H49.5588C49.7264 109.139 49.9778 108.871 50.313 108.672C50.6483 108.47 51.0502 108.369 51.519 108.369C52.1042 108.369 52.5829 108.553 52.9551 108.919C53.3272 109.283 53.5133 109.849 53.5133 110.619V115H52.5076V110.619C52.5076 110.136 52.3755 109.791 52.1113 109.584C51.8471 109.376 51.536 109.273 51.1781 109.273C50.7179 109.273 50.3613 109.412 50.1085 109.69C49.8556 109.966 49.7292 110.315 49.7292 110.739V115H48.7065V110.517C48.7065 110.145 48.5858 109.845 48.3443 109.618C48.1028 109.388 47.7917 109.273 47.411 109.273C47.1497 109.273 46.9054 109.342 46.6781 109.482C46.4537 109.621 46.2718 109.814 46.1326 110.061C45.9963 110.305 45.9281 110.588 45.9281 110.909V115H44.9224ZM58.0112 115.136C57.4203 115.136 56.9018 114.996 56.4558 114.714C56.0126 114.433 55.666 114.04 55.416 113.534C55.1689 113.028 55.0453 112.437 55.0453 111.761C55.0453 111.08 55.1689 110.484 55.416 109.976C55.666 109.467 56.0126 109.072 56.4558 108.791C56.9018 108.51 57.4203 108.369 58.0112 108.369C58.6021 108.369 59.1191 108.51 59.5623 108.791C60.0083 109.072 60.3549 109.467 60.6021 109.976C60.8521 110.484 60.9771 111.08 60.9771 111.761C60.9771 112.437 60.8521 113.028 60.6021 113.534C60.3549 114.04 60.0083 114.433 59.5623 114.714C59.1191 114.996 58.6021 115.136 58.0112 115.136ZM58.0112 114.233C58.46 114.233 58.8294 114.118 59.1191 113.888C59.4089 113.658 59.6234 113.355 59.7626 112.98C59.9018 112.605 59.9714 112.199 59.9714 111.761C59.9714 111.324 59.9018 110.916 59.7626 110.538C59.6234 110.161 59.4089 109.855 59.1191 109.622C58.8294 109.389 58.46 109.273 58.0112 109.273C57.5623 109.273 57.193 109.389 56.9032 109.622C56.6135 109.855 56.399 110.161 56.2598 110.538C56.1206 110.916 56.051 111.324 56.051 111.761C56.051 112.199 56.1206 112.605 56.2598 112.98C56.399 113.355 56.6135 113.658 56.9032 113.888C57.193 114.118 57.5623 114.233 58.0112 114.233ZM65.3588 108.455V109.307H61.9668V108.455H65.3588ZM62.9554 106.886H63.9611V113.125C63.9611 113.409 64.0023 113.622 64.0847 113.764C64.1699 113.903 64.2779 113.997 64.4086 114.045C64.5421 114.091 64.6827 114.114 64.8304 114.114C64.9412 114.114 65.0321 114.108 65.1032 114.097C65.1742 114.082 65.231 114.071 65.2736 114.062L65.4782 114.966C65.41 114.991 65.3148 115.017 65.1926 115.043C65.0705 115.071 64.9157 115.085 64.7282 115.085C64.4441 115.085 64.1657 115.024 63.8929 114.902C63.623 114.78 63.3986 114.594 63.2196 114.344C63.0435 114.094 62.9554 113.778 62.9554 113.398V106.886ZM66.8716 115V108.455H67.8773V115H66.8716ZM67.383 107.364C67.187 107.364 67.0179 107.297 66.8759 107.163C66.7367 107.03 66.6671 106.869 66.6671 106.682C66.6671 106.494 66.7367 106.334 66.8759 106.2C67.0179 106.067 67.187 106 67.383 106C67.579 106 67.7466 106.067 67.8858 106.2C68.0279 106.334 68.0989 106.494 68.0989 106.682C68.0989 106.869 68.0279 107.03 67.8858 107.163C67.7466 107.297 67.579 107.364 67.383 107.364ZM72.3784 115.136C71.7875 115.136 71.269 114.996 70.823 114.714C70.3798 114.433 70.0332 114.04 69.7832 113.534C69.536 113.028 69.4125 112.437 69.4125 111.761C69.4125 111.08 69.536 110.484 69.7832 109.976C70.0332 109.467 70.3798 109.072 70.823 108.791C71.269 108.51 71.7875 108.369 72.3784 108.369C72.9693 108.369 73.4863 108.51 73.9295 108.791C74.3755 109.072 74.7221 109.467 74.9693 109.976C75.2193 110.484 75.3443 111.08 75.3443 111.761C75.3443 112.437 75.2193 113.028 74.9693 113.534C74.7221 114.04 74.3755 114.433 73.9295 114.714C73.4863 114.996 72.9693 115.136 72.3784 115.136ZM72.3784 114.233C72.8272 114.233 73.1966 114.118 73.4863 113.888C73.7761 113.658 73.9906 113.355 74.1298 112.98C74.269 112.605 74.3386 112.199 74.3386 111.761C74.3386 111.324 74.269 110.916 74.1298 110.538C73.9906 110.161 73.7761 109.855 73.4863 109.622C73.1966 109.389 72.8272 109.273 72.3784 109.273C71.9295 109.273 71.5602 109.389 71.2704 109.622C70.9806 109.855 70.7662 110.161 70.627 110.538C70.4877 110.916 70.4181 111.324 70.4181 111.761C70.4181 112.199 70.4877 112.605 70.627 112.98C70.7662 113.355 70.9806 113.658 71.2704 113.888C71.5602 114.118 71.9295 114.233 72.3784 114.233ZM77.8851 111.062V115H76.8794V108.455H77.851V109.477H77.9363C78.0897 109.145 78.3226 108.878 78.6351 108.676C78.9476 108.472 79.351 108.369 79.8453 108.369C80.2885 108.369 80.6763 108.46 81.0087 108.642C81.3411 108.821 81.5996 109.094 81.7843 109.46C81.9689 109.824 82.0613 110.284 82.0613 110.841V115H81.0556V110.909C81.0556 110.395 80.9221 109.994 80.655 109.707C80.388 109.418 80.0215 109.273 79.5556 109.273C79.2346 109.273 78.9476 109.342 78.6948 109.482C78.4448 109.621 78.2473 109.824 78.1025 110.091C77.9576 110.358 77.8851 110.682 77.8851 111.062ZM85.8251 115.153C85.4103 115.153 85.0339 115.075 84.6958 114.919C84.3578 114.76 84.0893 114.531 83.8904 114.233C83.6916 113.932 83.5922 113.568 83.5922 113.142C83.5922 112.767 83.666 112.463 83.8137 112.23C83.9615 111.994 84.1589 111.81 84.4061 111.676C84.6532 111.543 84.926 111.443 85.2243 111.378C85.5254 111.31 85.8279 111.256 86.1319 111.216C86.5297 111.165 86.8521 111.126 87.0993 111.101C87.3493 111.072 87.5311 111.026 87.6447 110.96C87.7612 110.895 87.8194 110.781 87.8194 110.619V110.585C87.8194 110.165 87.7044 109.838 87.4743 109.605C87.247 109.372 86.9018 109.256 86.4387 109.256C85.9586 109.256 85.5822 109.361 85.3095 109.571C85.0368 109.781 84.845 110.006 84.7342 110.244L83.7797 109.903C83.9501 109.506 84.1774 109.196 84.4615 108.974C84.7484 108.75 85.0609 108.594 85.399 108.506C85.7399 108.415 86.0751 108.369 86.4047 108.369C86.6149 108.369 86.8564 108.395 87.1291 108.446C87.4047 108.494 87.6703 108.595 87.926 108.749C88.1845 108.902 88.399 109.134 88.5694 109.443C88.7399 109.753 88.8251 110.168 88.8251 110.688V115H87.8194V114.114H87.7683C87.7001 114.256 87.5865 114.408 87.4274 114.57C87.2683 114.732 87.0566 114.869 86.7924 114.983C86.5282 115.097 86.2058 115.153 85.8251 115.153ZM85.9785 114.25C86.3762 114.25 86.7115 114.172 86.9842 114.016C87.2598 113.859 87.4672 113.658 87.6064 113.411C87.7484 113.163 87.8194 112.903 87.8194 112.631V111.71C87.7768 111.761 87.6831 111.808 87.5382 111.851C87.3961 111.891 87.2314 111.926 87.0439 111.957C86.8592 111.986 86.6788 112.011 86.5027 112.034C86.3294 112.054 86.1887 112.071 86.0808 112.085C85.8194 112.119 85.5751 112.175 85.3478 112.251C85.1234 112.325 84.9416 112.437 84.8024 112.588C84.666 112.736 84.5978 112.937 84.5978 113.193C84.5978 113.543 84.7271 113.807 84.9856 113.986C85.247 114.162 85.5779 114.25 85.9785 114.25ZM91.6664 106.273V115H90.6607V106.273H91.6664ZM96.2527 115.136C95.622 115.136 95.0779 114.997 94.6206 114.719C94.166 114.438 93.8152 114.045 93.568 113.543C93.3237 113.037 93.2015 112.449 93.2015 111.778C93.2015 111.108 93.3237 110.517 93.568 110.006C93.8152 109.491 94.1589 109.091 94.5993 108.804C95.0424 108.514 95.5595 108.369 96.1504 108.369C96.4913 108.369 96.8279 108.426 97.1603 108.54C97.4927 108.653 97.7953 108.838 98.068 109.094C98.3407 109.347 98.5581 109.682 98.72 110.099C98.8819 110.517 98.9629 111.031 98.9629 111.642V112.068H93.9174V111.199H97.9402C97.9402 110.83 97.8663 110.5 97.7186 110.21C97.5737 109.92 97.3663 109.692 97.0964 109.524C96.8294 109.357 96.514 109.273 96.1504 109.273C95.7498 109.273 95.4032 109.372 95.1106 109.571C94.8208 109.767 94.5978 110.023 94.4416 110.338C94.2853 110.653 94.2072 110.991 94.2072 111.352V111.932C94.2072 112.426 94.2924 112.845 94.4629 113.189C94.6362 113.53 94.8762 113.79 95.1831 113.969C95.4899 114.145 95.8464 114.233 96.2527 114.233C96.5169 114.233 96.7555 114.196 96.9686 114.122C97.1845 114.045 97.3706 113.932 97.5268 113.781C97.6831 113.628 97.8038 113.437 97.889 113.21L98.8606 113.483C98.7583 113.812 98.5865 114.102 98.345 114.352C98.1035 114.599 97.8052 114.793 97.4501 114.932C97.095 115.068 96.6958 115.136 96.2527 115.136ZM105.129 109.92L104.226 110.176C104.169 110.026 104.085 109.879 103.974 109.737C103.866 109.592 103.719 109.473 103.531 109.379C103.344 109.286 103.104 109.239 102.811 109.239C102.41 109.239 102.077 109.331 101.809 109.516C101.545 109.697 101.413 109.929 101.413 110.21C101.413 110.46 101.504 110.658 101.686 110.803C101.868 110.947 102.152 111.068 102.538 111.165L103.51 111.403C104.095 111.545 104.531 111.763 104.818 112.055C105.105 112.345 105.248 112.719 105.248 113.176C105.248 113.551 105.14 113.886 104.925 114.182C104.711 114.477 104.413 114.71 104.03 114.881C103.646 115.051 103.2 115.136 102.692 115.136C102.024 115.136 101.471 114.991 101.034 114.702C100.596 114.412 100.319 113.989 100.203 113.432L101.157 113.193C101.248 113.545 101.42 113.81 101.673 113.986C101.929 114.162 102.263 114.25 102.675 114.25C103.143 114.25 103.515 114.151 103.791 113.952C104.069 113.75 104.209 113.509 104.209 113.227C104.209 113 104.129 112.81 103.97 112.656C103.811 112.5 103.567 112.384 103.237 112.307L102.146 112.051C101.547 111.909 101.106 111.689 100.825 111.391C100.547 111.089 100.407 110.713 100.407 110.261C100.407 109.892 100.511 109.565 100.719 109.281C100.929 108.997 101.214 108.774 101.575 108.612C101.939 108.45 102.351 108.369 102.811 108.369C103.459 108.369 103.967 108.511 104.336 108.795C104.709 109.08 104.973 109.455 105.129 109.92ZM26.28 121.273L28.8709 128.619H28.9732L31.5641 121.273H32.6721L29.4675 130H28.3766L25.1721 121.273H26.28ZM36.03 130.136C35.3993 130.136 34.8553 129.997 34.3979 129.719C33.9434 129.438 33.5925 129.045 33.3453 128.543C33.101 128.037 32.9789 127.449 32.9789 126.778C32.9789 126.108 33.101 125.517 33.3453 125.006C33.5925 124.491 33.9363 124.091 34.3766 123.804C34.8198 123.514 35.3368 123.369 35.9277 123.369C36.2686 123.369 36.6053 123.426 36.9377 123.54C37.2701 123.653 37.5726 123.838 37.8453 124.094C38.1181 124.347 38.3354 124.682 38.4973 125.099C38.6593 125.517 38.7402 126.031 38.7402 126.642V127.068H33.6948V126.199H37.7175C37.7175 125.83 37.6436 125.5 37.4959 125.21C37.351 124.92 37.1436 124.692 36.8738 124.524C36.6067 124.357 36.2914 124.273 35.9277 124.273C35.5272 124.273 35.1806 124.372 34.888 124.571C34.5982 124.767 34.3752 125.023 34.2189 125.338C34.0627 125.653 33.9846 125.991 33.9846 126.352V126.932C33.9846 127.426 34.0698 127.845 34.2402 128.189C34.4135 128.53 34.6536 128.79 34.9604 128.969C35.2672 129.145 35.6238 129.233 36.03 129.233C36.2942 129.233 36.5328 129.196 36.7459 129.122C36.9618 129.045 37.1479 128.932 37.3042 128.781C37.4604 128.628 37.5811 128.437 37.6664 128.21L38.638 128.483C38.5357 128.812 38.3638 129.102 38.1223 129.352C37.8809 129.599 37.5826 129.793 37.2275 129.932C36.8723 130.068 36.4732 130.136 36.03 130.136ZM40.2701 130V123.455H41.2417V124.443H41.3098C41.4292 124.119 41.6451 123.857 41.9576 123.655C42.2701 123.453 42.6223 123.352 43.0144 123.352C43.0882 123.352 43.1806 123.354 43.2914 123.357C43.4022 123.359 43.486 123.364 43.5428 123.369V124.392C43.5087 124.384 43.4306 124.371 43.3084 124.354C43.1891 124.334 43.0627 124.324 42.9292 124.324C42.611 124.324 42.3269 124.391 42.0769 124.524C41.8297 124.655 41.6337 124.837 41.4888 125.07C41.3468 125.3 41.2757 125.562 41.2757 125.858V130H40.2701ZM45.6724 127.614L45.6554 126.369H45.8599L48.7235 123.455H49.9679L46.9167 126.54H46.8315L45.6724 127.614ZM44.7349 130V121.273H45.7406V130H44.7349ZM48.894 130L46.3372 126.761L47.0531 126.062L50.1724 130H48.894ZM53.1884 130.153C52.7736 130.153 52.3972 130.075 52.0591 129.919C51.7211 129.76 51.4526 129.531 51.2537 129.233C51.0549 128.932 50.9554 128.568 50.9554 128.142C50.9554 127.767 51.0293 127.463 51.177 127.23C51.3248 126.994 51.5222 126.81 51.7694 126.676C52.0165 126.543 52.2892 126.443 52.5875 126.378C52.8887 126.31 53.1912 126.256 53.4952 126.216C53.8929 126.165 54.2154 126.126 54.4625 126.101C54.7125 126.072 54.8944 126.026 55.008 125.96C55.1245 125.895 55.1827 125.781 55.1827 125.619V125.585C55.1827 125.165 55.0676 124.838 54.8375 124.605C54.6103 124.372 54.2651 124.256 53.802 124.256C53.3219 124.256 52.9455 124.361 52.6728 124.571C52.4 124.781 52.2083 125.006 52.0975 125.244L51.1429 124.903C51.3134 124.506 51.5407 124.196 51.8248 123.974C52.1117 123.75 52.4242 123.594 52.7623 123.506C53.1032 123.415 53.4384 123.369 53.7679 123.369C53.9782 123.369 54.2196 123.395 54.4924 123.446C54.7679 123.494 55.0336 123.595 55.2892 123.749C55.5478 123.902 55.7623 124.134 55.9327 124.443C56.1032 124.753 56.1884 125.168 56.1884 125.688V130H55.1827V129.114H55.1316C55.0634 129.256 54.9498 129.408 54.7907 129.57C54.6316 129.732 54.4199 129.869 54.1557 129.983C53.8915 130.097 53.5691 130.153 53.1884 130.153ZM53.3418 129.25C53.7395 129.25 54.0748 129.172 54.3475 129.016C54.623 128.859 54.8304 128.658 54.9696 128.411C55.1117 128.163 55.1827 127.903 55.1827 127.631V126.71C55.1401 126.761 55.0463 126.808 54.9015 126.851C54.7594 126.891 54.5946 126.926 54.4071 126.957C54.2225 126.986 54.0421 127.011 53.8659 127.034C53.6926 127.054 53.552 127.071 53.4441 127.085C53.1827 127.119 52.9384 127.175 52.7111 127.251C52.4867 127.325 52.3049 127.437 52.1657 127.588C52.0293 127.736 51.9611 127.937 51.9611 128.193C51.9611 128.543 52.0904 128.807 52.3489 128.986C52.6103 129.162 52.9412 129.25 53.3418 129.25ZM62.149 127.324V123.455H63.1547V130H62.149V128.892H62.0808C61.9274 129.224 61.6887 129.507 61.3649 129.74C61.041 129.97 60.6319 130.085 60.1376 130.085C59.7285 130.085 59.3649 129.996 59.0467 129.817C58.7285 129.635 58.4785 129.362 58.2967 128.999C58.1149 128.632 58.024 128.17 58.024 127.614V123.455H59.0297V127.545C59.0297 128.023 59.1632 128.403 59.4302 128.688C59.7001 128.972 60.0439 129.114 60.4615 129.114C60.7115 129.114 60.9657 129.05 61.2243 128.922C61.4856 128.794 61.7044 128.598 61.8805 128.334C62.0595 128.07 62.149 127.733 62.149 127.324ZM67.9114 123.455V124.307H64.383V123.455H67.9114ZM65.4398 130V122.551C65.4398 122.176 65.5279 121.864 65.704 121.614C65.8801 121.364 66.1088 121.176 66.3901 121.051C66.6713 120.926 66.9682 120.864 67.2807 120.864C67.5279 120.864 67.7296 120.884 67.8858 120.923C68.0421 120.963 68.1586 121 68.2353 121.034L67.9455 121.903C67.8944 121.886 67.8233 121.865 67.7324 121.839C67.6444 121.814 67.5279 121.801 67.383 121.801C67.0506 121.801 66.8105 121.885 66.6628 122.053C66.5179 122.22 66.4455 122.466 66.4455 122.79V130H65.4398ZM71.7956 130.136C71.165 130.136 70.6209 129.997 70.1635 129.719C69.709 129.438 69.3581 129.045 69.111 128.543C68.8667 128.037 68.7445 127.449 68.7445 126.778C68.7445 126.108 68.8667 125.517 69.111 125.006C69.3581 124.491 69.7019 124.091 70.1422 123.804C70.5854 123.514 71.1025 123.369 71.6934 123.369C72.0343 123.369 72.3709 123.426 72.7033 123.54C73.0357 123.653 73.3382 123.838 73.611 124.094C73.8837 124.347 74.101 124.682 74.263 125.099C74.4249 125.517 74.5059 126.031 74.5059 126.642V127.068H69.4604V126.199H73.4831C73.4831 125.83 73.4093 125.5 73.2615 125.21C73.1167 124.92 72.9093 124.692 72.6394 124.524C72.3723 124.357 72.057 124.273 71.6934 124.273C71.2928 124.273 70.9462 124.372 70.6536 124.571C70.3638 124.767 70.1408 125.023 69.9846 125.338C69.8283 125.653 69.7502 125.991 69.7502 126.352V126.932C69.7502 127.426 69.8354 127.845 70.0059 128.189C70.1792 128.53 70.4192 128.79 70.726 128.969C71.0328 129.145 71.3894 129.233 71.7956 129.233C72.0598 129.233 72.2985 129.196 72.5115 129.122C72.7275 129.045 72.9135 128.932 73.0698 128.781C73.226 128.628 73.3468 128.437 73.432 128.21L74.4036 128.483C74.3013 128.812 74.1294 129.102 73.888 129.352C73.6465 129.599 73.3482 129.793 72.9931 129.932C72.638 130.068 72.2388 130.136 71.7956 130.136ZM77.0414 126.062V130H76.0357V123.455H77.0073V124.477H77.0925C77.2459 124.145 77.4789 123.878 77.7914 123.676C78.1039 123.472 78.5073 123.369 79.0016 123.369C79.4448 123.369 79.8326 123.46 80.165 123.642C80.4973 123.821 80.7559 124.094 80.9405 124.46C81.1252 124.824 81.2175 125.284 81.2175 125.841V130H80.2118V125.909C80.2118 125.395 80.0783 124.994 79.8113 124.707C79.5442 124.418 79.1777 124.273 78.7118 124.273C78.3908 124.273 78.1039 124.342 77.851 124.482C77.601 124.621 77.4036 124.824 77.2587 125.091C77.1138 125.358 77.0414 125.682 77.0414 126.062Z" fill="black"/>
<path d="M24.8037 74L29.916 65.6211C29.4277 65.8164 28.9834 65.9482 28.583 66.0166C28.1826 66.085 27.7529 66.1191 27.2939 66.1191C26.4346 66.1191 25.541 65.9531 24.6133 65.6211C23.6953 65.2793 22.9092 64.8057 22.2549 64.2002C21.6104 63.585 21.0732 62.833 20.6436 61.9443C20.2236 61.0459 20.0137 60.1377 20.0137 59.2197C20.0137 57.9795 20.2236 56.876 20.6436 55.9092C21.0635 54.9424 21.6299 54.127 22.3428 53.4629C23.0557 52.7988 23.8809 52.2959 24.8184 51.9541C25.7656 51.6025 26.7666 51.4268 27.8213 51.4268C28.876 51.4268 29.8574 51.6025 30.7656 51.9541C31.6836 52.3057 32.499 52.8135 33.2119 53.4775C33.9248 54.1318 34.4814 54.918 34.8818 55.8359C35.292 56.7441 35.4971 57.7549 35.4971 58.8682C35.4971 59.7275 35.3311 60.5771 34.999 61.417C34.6768 62.2568 34.2715 63.1357 33.7832 64.0537L28.2168 74H24.8037ZM27.748 53.9756C27.084 53.9756 26.4492 54.0928 25.8438 54.3271C25.2383 54.5615 24.7061 54.8936 24.2471 55.3232C23.7881 55.7529 23.4219 56.2656 23.1484 56.8613C22.875 57.457 22.7383 58.1162 22.7383 58.8389C22.7383 59.6396 22.8848 60.3477 23.1777 60.9629C23.4707 61.5684 23.8613 62.0762 24.3496 62.4863C24.8477 62.8965 25.3994 63.2041 26.0049 63.4092C26.6201 63.6143 27.2354 63.7168 27.8506 63.7168C28.749 63.7168 29.4424 63.6094 29.9307 63.3945C30.4287 63.1699 30.8975 62.8623 31.3369 62.4717C31.7764 62.0713 32.123 61.5684 32.377 60.9629C32.6309 60.3477 32.7578 59.6396 32.7578 58.8389C32.7578 58.0771 32.6309 57.3936 32.377 56.7881C32.123 56.1826 31.7715 55.6748 31.3223 55.2646C30.873 54.8447 30.3408 54.5273 29.7256 54.3125C29.1201 54.0879 28.4609 53.9756 27.748 53.9756ZM46.7031 74.2637C45.1211 74.2637 43.7979 73.9707 42.7334 73.3848C41.6689 72.7988 40.8145 71.9932 40.1699 70.9678C39.5352 69.9424 39.0811 68.7412 38.8076 67.3643C38.5342 65.9873 38.3975 64.5078 38.3975 62.9258C38.3975 61.2363 38.583 59.6592 38.9541 58.1943C39.3252 56.7197 39.8232 55.5381 40.4482 54.6494C41.0732 53.7607 41.8594 53.0039 42.8066 52.3789C43.7637 51.7539 45.0723 51.4414 46.7324 51.4414C48.3047 51.4414 49.6133 51.6904 50.6582 52.1885C51.7031 52.6865 52.5625 53.4531 53.2363 54.4883C53.9199 55.5137 54.3984 56.7539 54.6719 58.209C54.9453 59.6641 55.082 61.207 55.082 62.8379C55.082 64.4297 54.9453 65.9189 54.6719 67.3057C54.3984 68.6924 53.9346 69.9033 53.2803 70.9385C52.6357 71.9639 51.7764 72.7744 50.7021 73.3701C49.6279 73.9658 48.2949 74.2637 46.7031 74.2637ZM46.7031 71.6562C47.8457 71.6562 48.7637 71.4268 49.457 70.9678C50.1602 70.499 50.6875 69.8643 51.0391 69.0635C51.4004 68.2627 51.6689 67.3301 51.8447 66.2656C52.0205 65.1914 52.1084 64.0488 52.1084 62.8379C52.1084 61.6758 52.04 60.5625 51.9033 59.498C51.7666 58.4238 51.5029 57.4766 51.1123 56.6562C50.7217 55.8359 50.1748 55.1816 49.4717 54.6934C48.7686 54.2051 47.8555 53.9609 46.7324 53.9609C45.5703 53.9609 44.6523 54.2051 43.9785 54.6934C43.3047 55.1816 42.8018 55.7725 42.4697 56.4658C42.1377 57.1494 41.874 58.0918 41.6787 59.293C41.4932 60.4941 41.4004 61.6758 41.4004 62.8379C41.4004 64.0488 41.459 65.1914 41.5762 66.2656C41.7031 67.3301 41.9521 68.2627 42.3232 69.0635C42.7041 69.8643 43.2412 70.499 43.9346 70.9678C44.6377 71.4268 45.5605 71.6562 46.7031 71.6562ZM64.252 56.9053C64.252 56.251 64.374 55.6309 64.6182 55.0449C64.8623 54.4492 65.2041 53.9316 65.6436 53.4922C66.0928 53.043 66.625 52.6914 67.2402 52.4375C67.8555 52.1738 68.5293 52.042 69.2617 52.042C69.9941 52.042 70.668 52.1738 71.2832 52.4375C71.8984 52.6914 72.4258 53.043 72.8652 53.4922C73.3047 53.9316 73.6465 54.4492 73.8906 55.0449C74.1445 55.6309 74.2715 56.251 74.2715 56.9053C74.2715 57.5693 74.1494 58.1943 73.9053 58.7803C73.6709 59.3662 73.334 59.8838 72.8945 60.333C72.4551 60.7822 71.9277 61.1387 71.3125 61.4023C70.6973 61.6562 70.0137 61.7832 69.2617 61.7832C68.5 61.7832 67.8115 61.6562 67.1963 61.4023C66.5811 61.1387 66.0537 60.7822 65.6143 60.333C65.1846 59.8838 64.8477 59.3662 64.6035 58.7803C64.3691 58.1943 64.252 57.5693 64.252 56.9053ZM69.2617 54.4443C68.9102 54.4443 68.5781 54.5078 68.2656 54.6348C67.9629 54.752 67.6943 54.9229 67.46 55.1475C67.2354 55.3623 67.0547 55.6211 66.918 55.9238C66.791 56.2266 66.7275 56.5537 66.7275 56.9053C66.7275 57.2471 66.791 57.5742 66.918 57.8867C67.0547 58.1895 67.2354 58.458 67.46 58.6924C67.6943 58.917 67.9629 59.0977 68.2656 59.2344C68.5781 59.3613 68.9102 59.4248 69.2617 59.4248C69.6035 59.4248 69.9258 59.3613 70.2285 59.2344C70.5312 59.0977 70.7949 58.917 71.0195 58.6924C71.2441 58.4678 71.4199 58.2041 71.5469 57.9014C71.6836 57.5889 71.752 57.2568 71.752 56.9053C71.752 56.5537 71.6836 56.2266 71.5469 55.9238C71.4199 55.6211 71.2441 55.3623 71.0195 55.1475C70.7949 54.9229 70.5312 54.752 70.2285 54.6348C69.9258 54.5078 69.6035 54.4443 69.2617 54.4443ZM81.4932 51.4414H84.3496L69.1006 74.2344H66.2588L81.4932 51.4414ZM76.9375 69.2686C76.9375 68.6143 77.0596 67.9941 77.3037 67.4082C77.5479 66.8223 77.8896 66.3096 78.3291 65.8701C78.7783 65.4209 79.3105 65.0645 79.9258 64.8008C80.541 64.5371 81.2148 64.4053 81.9473 64.4053C82.6797 64.4053 83.3535 64.5371 83.9688 64.8008C84.584 65.0645 85.1113 65.4209 85.5508 65.8701C86 66.3096 86.3467 66.8223 86.5908 67.4082C86.835 67.9941 86.957 68.6143 86.957 69.2686C86.957 69.9326 86.835 70.5625 86.5908 71.1582C86.3564 71.7441 86.0195 72.2617 85.5801 72.7109C85.1504 73.1504 84.6279 73.502 84.0127 73.7656C83.3975 74.0293 82.709 74.1611 81.9473 74.1611C81.1855 74.1611 80.4971 74.0293 79.8818 73.7656C79.2666 73.502 78.7393 73.1504 78.2998 72.7109C77.8701 72.2617 77.5332 71.7441 77.2891 71.1582C77.0547 70.5625 76.9375 69.9326 76.9375 69.2686ZM81.9473 66.8076C81.6055 66.8076 81.2783 66.8711 80.9658 66.998C80.6631 67.125 80.3945 67.3008 80.1602 67.5254C79.9355 67.7402 79.7549 67.999 79.6182 68.3018C79.4912 68.5947 79.4277 68.917 79.4277 69.2686C79.4277 69.6104 79.4912 69.9375 79.6182 70.25C79.7549 70.5527 79.9355 70.8213 80.1602 71.0557C80.3945 71.2803 80.6631 71.4609 80.9658 71.5977C81.2783 71.7246 81.6055 71.7881 81.9473 71.7881C82.2891 71.7881 82.6113 71.7246 82.9141 71.5977C83.2168 71.4609 83.4805 71.2803 83.7051 71.0557C83.9297 70.8311 84.1055 70.5674 84.2324 70.2646C84.3691 69.9521 84.4375 69.6201 84.4375 69.2686C84.4375 68.917 84.3691 68.5947 84.2324 68.3018C84.1055 67.999 83.9297 67.7402 83.7051 67.5254C83.4805 67.3008 83.2168 67.125 82.9141 66.998C82.6113 66.8711 82.2891 66.8076 81.9473 66.8076Z" fill="black"/>
<rect x="46" y="17" width="7" height="16" fill="#D9D9D9"/>
<rect x="54.8394" width="7.07143" height="33" fill="#CA111F"/>
</svg>
